<svg preserveAspectRatio="none" width="100%" height="100%" overflow="visible" style="display: block;" viewBox="0 0 125.142 54" fill="none" xmlns="http://www.w3.org/2000/svg">
<g id="OPO">
<path id="Vector" d="M30.7711 32.72C30.6059 32.8488 30.4407 32.9775 30.2755 33.1063L26.0174 37.3733C19.2448 44.1601 8.30577 42.8542 3.11158 35.6444C3.75397 36.7847 4.46978 37.8515 5.29571 38.8815C5.4609 39.0838 5.62608 39.2861 5.79127 39.4884C5.80962 39.5252 5.84633 39.562 5.88304 39.5804C6.45201 40.2425 7.05769 40.8862 7.70008 41.4748C12.5823 45.9074 19.0796 48.1144 25.6503 47.5811C26.6414 41.6035 29.2844 35.9203 31.3033 32.2234C31.1382 32.389 30.9546 32.5545 30.7711 32.72Z" fill="url(#paint0_linear_0_215)"/>
<path id="O" d="M47.2346 27.8277C47.3264 27.3127 47.3998 26.8161 47.4549 26.3011C47.4916 26.0436 47.5099 25.7861 47.5283 25.5286V25.3999C47.6017 24.3515 47.6201 23.3215 47.565 22.2732V21.8869C46.4638 9.85831 36.3874 0.239101 24.0719 0.0735695C19.0429 -3.63774e-09 14.124 1.50817 10.0127 4.41417C4.21282 8.57084 0.560374 15.0817 0.0648154 22.1812C-0.283911 26.8713 0.780622 31.5613 3.11158 35.6628C8.30577 42.891 19.2448 44.1785 26.0174 37.3917L30.2755 33.1247C30.0736 33.2718 29.8534 33.4373 29.6331 33.5661C24.4389 36.9135 17.5011 35.4053 14.1607 30.2003C11.169 25.5286 12.0316 19.3672 16.1796 15.7071C16.2347 15.6519 16.2898 15.6151 16.3448 15.5599C19.465 12.9298 23.7415 12.2125 27.5408 13.6655H27.5591L27.6509 13.7023C29.5047 14.346 31.1565 15.4864 32.4229 16.9946C35.433 20.7282 35.7083 25.9884 33.0837 30.0163C32.735 30.5865 32.3312 31.1199 31.8723 31.6349C31.7071 31.8372 31.5236 32.0211 31.3217 32.205H31.3033V32.2418C29.2477 35.9387 26.6047 41.6219 25.632 47.5995C36.4792 46.735 45.3809 38.6056 47.2163 27.8644" fill="var(--fill-0, #2DA9E1)"/>
<path id="Vector_2" d="M99.7638 0.0367847H99.3784C87.3749 1.12193 77.7757 11.2377 77.6105 23.579C77.5371 28.6185 79.0421 33.5477 81.9421 37.6676C86.0717 43.4612 92.569 47.1213 99.672 47.6362C104.352 47.9857 109.033 46.9189 113.126 44.5831C120.339 39.3781 121.623 28.4162 114.851 21.6294L110.593 17.3624C110.74 17.5647 110.905 17.7854 111.033 18.0061C114.355 23.2296 112.814 30.1635 107.583 33.4925C102.939 36.4353 96.8639 35.5892 93.2114 31.4693C93.1564 31.4142 93.1197 31.359 93.0646 31.3038C90.44 28.1771 89.7242 23.8917 91.1741 20.0845C91.1741 20.0293 91.1741 20.0109 91.2108 19.9741C91.8532 18.1165 92.9912 16.4612 94.4962 15.1921C98.8645 11.8079 105.013 12.047 109.106 15.7439C109.308 15.9094 109.491 16.0933 109.675 16.2956V16.314C113.364 18.374 119.036 21.0225 125.001 22.0157C124.138 11.1274 116.025 2.22548 105.288 0.367847C104.774 0.275886 104.279 0.202316 103.765 0.147139C103.508 0.110354 103.251 0.0919619 102.994 0.0735695H102.866C102.26 0.0183924 101.636 0 101.03 0C100.425 0 100.168 0 99.7455 0.0367847" fill="url(#paint1_linear_0_215)"/>
<path id="O-2" d="M110.207 16.8658C110.354 17.0313 110.464 17.1969 110.593 17.3624L114.851 21.6294C121.623 28.4162 120.339 39.3781 113.126 44.5831C114.263 43.9394 115.328 43.2037 116.356 42.3944C116.558 42.2289 116.76 42.0634 116.962 41.8978L117.053 41.8059C122.78 36.8951 125.753 29.5014 125.037 21.9973C119.091 21.0225 113.401 18.374 109.712 16.3324C109.877 16.5163 110.042 16.6819 110.207 16.8658Z" fill="var(--fill-0, #2DA9E1)"/>
<path id="Vector_3" d="M47.4732 5.57289C42.2974 9.8951 39.1772 16.1853 38.9019 22.9353C38.9019 23.1192 38.8836 23.3031 38.8836 23.4871V53.9632C39.1772 53.9632 39.4709 54 39.7645 54C45.1423 53.6321 49.7308 50.0089 51.3459 44.859C51.4377 44.5279 51.5295 44.2153 51.6029 43.8842C51.6763 43.3324 51.7314 42.7623 51.7314 42.2105V24.8665C51.6947 24.3331 51.6947 23.7997 51.7314 23.2663C51.7314 21.795 52.1351 20.3604 52.8326 19.0913C53.5117 17.6015 54.5028 16.2772 55.7509 15.2289C57.9901 13.408 60.8717 12.5436 63.7349 12.8195C63.2944 12.654 62.5786 12.4149 62.5235 12.3781C58.5223 11.2561 52.5206 9.10422 47.5099 5.5361C47.5099 5.5361 47.4916 5.5361 47.4732 5.57289Z" fill="url(#paint2_linear_0_215)"/>
<path id="P" d="M85.9432 28.5266C85.9983 28.2691 86.035 28.03 86.0717 27.7909V27.6621C86.1268 27.423 86.1635 27.2023 86.2002 26.9632V26.908C86.2369 26.6505 86.2553 26.3931 86.292 26.1356V26.0252C86.292 25.8045 86.3287 25.6022 86.3287 25.3999V25.2159C86.3287 24.9952 86.3654 24.7561 86.3654 24.5354V22.7514C86.3654 22.5307 86.3654 22.2916 86.3287 22.0708V22.0341C85.9249 16.9578 83.9059 12.139 80.5839 8.27657C80.3636 8.01907 80.1434 7.77997 79.9231 7.54087C79.8497 7.44891 79.7579 7.37534 79.6845 7.28338C79.5377 7.13624 79.4092 6.9891 79.2624 6.86035C79.1523 6.75 79.0421 6.65804 78.932 6.54768L78.5833 6.21662C78.4548 6.10627 78.3263 5.97752 78.1795 5.86717L77.9409 5.66485C77.1333 4.98433 76.2707 4.3406 75.3713 3.77044C72.71 2.07834 69.7366 0.938011 66.6348 0.404632C66.1209 0.31267 65.6253 0.239101 65.1114 0.183924C64.8545 0.147139 64.5975 0.128747 64.3406 0.110354H64.2121C63.3495 0.0367847 62.5052 0.0183924 61.6425 0.0367847C56.0446 -0.0183924 41.6734 0.0367847 41.6734 0.0367847C43.2151 2.24387 45.1056 4.19346 47.2713 5.7936C52.1719 9.38011 58.1369 11.5688 62.2115 12.7643C62.7438 12.7275 63.2944 12.7643 63.8267 12.8011C64.0469 12.8195 64.2488 12.8379 64.4507 12.8747H64.4874C64.6893 12.9114 64.8912 12.9482 65.0931 12.985H65.1298C65.3317 13.0218 65.5336 13.077 65.7355 13.1322H65.8089C65.9924 13.2057 66.1943 13.2609 66.3779 13.3345H66.4146C66.5981 13.408 66.8 13.4816 66.9835 13.5552L67.0753 13.592C67.2589 13.6655 67.424 13.7575 67.6076 13.8311H67.6443C67.8278 13.9414 68.0114 14.0334 68.1766 14.1253L68.2867 14.1989C68.4702 14.3093 68.6354 14.4012 68.8006 14.5116C69.3696 14.861 69.9202 15.2657 70.4157 15.7255C70.6176 15.891 70.8012 16.0749 70.9847 16.2772V16.2956C71.1499 16.498 71.3151 16.6635 71.4803 16.8474C71.6455 17.0313 71.7372 17.1785 71.8657 17.344C72.0125 17.5463 72.1777 17.767 72.3062 17.9877C75.6466 23.2112 74.1233 30.1451 68.9291 33.4925C64.2671 36.4905 58.1369 35.626 54.4845 31.4693C54.4294 31.4142 54.3927 31.359 54.3376 31.3038C54.2091 31.1383 54.0807 30.9728 53.9522 30.8256L53.8604 30.7153C53.6218 30.3842 53.4016 30.0531 53.1997 29.7037C53.1813 29.6669 53.1446 29.6301 53.1263 29.5749C52.9244 29.2255 52.7592 28.876 52.594 28.5082L52.5389 28.3794C52.3921 28.0116 52.2636 27.6437 52.1535 27.2759C52.1535 27.2391 52.1352 27.1839 52.1168 27.1287C52.0617 26.9448 52.025 26.7609 51.97 26.577C51.8415 26.0068 51.7681 25.4366 51.713 24.8481V42.1921C51.713 42.7623 51.6763 43.314 51.6029 43.8658C51.5295 44.1969 51.4377 44.5279 51.3276 44.8406L51.6579 45.0061L51.8415 45.0981H51.8782L51.9883 45.1717L52.1168 45.2268L52.2636 45.3004L52.6307 45.4843L52.906 45.6131C53.0896 45.705 53.2731 45.7786 53.475 45.8522L53.7319 45.9625C53.8971 46.0177 54.044 46.0913 54.2092 46.1465L54.4845 46.2568L54.9066 46.4039L55.1819 46.4959L55.6591 46.643L55.861 46.6982C56.0813 46.7718 56.3199 46.827 56.5401 46.8821L56.7971 46.9373C56.9623 46.9741 57.1091 47.0109 57.2743 47.0477L57.5496 47.1029C57.7148 47.1396 57.88 47.1764 58.0635 47.2132L58.2287 47.25H58.2837C58.5591 47.3052 58.8344 47.342 59.128 47.3971H59.2565C59.5318 47.4523 59.8255 47.4891 60.1191 47.5259C60.3761 47.5627 60.6331 47.5811 60.89 47.5994C61.6425 47.6546 62.395 47.673 63.1476 47.6546H63.4779C63.7165 47.6546 63.9368 47.6546 64.1754 47.6178H64.3956C64.6526 47.5811 64.9095 47.5627 65.1665 47.5259H65.3133C65.5519 47.4891 65.8089 47.4707 66.0475 47.4339H66.2127C66.3412 47.3971 66.488 47.3603 66.6165 47.342C67.4424 47.1948 68.2683 47.0109 69.0759 46.7718L69.2227 46.735C69.4613 46.6614 69.6999 46.5879 69.9202 46.5143L70.1771 46.4223L70.5442 46.2936C70.7278 46.2384 70.9113 46.1648 71.0948 46.0913L71.3702 45.9809C71.5353 45.9074 71.7005 45.8522 71.8657 45.7786L72.086 45.6866C72.2879 45.5947 72.4898 45.5027 72.6733 45.4108L72.8385 45.3372C73.0587 45.2268 73.279 45.1165 73.4809 45.0061L73.6093 44.9326C73.8296 44.8038 74.0682 44.6935 74.2884 44.5647C74.5087 44.436 74.784 44.2704 75.0226 44.1233L75.2796 43.9762C75.4447 43.8842 75.5916 43.7738 75.7568 43.6635L76.0504 43.4796C76.2707 43.3324 76.4726 43.1853 76.6745 43.0381C76.9681 42.8358 77.2434 42.6151 77.5187 42.3944C77.7206 42.2289 77.9225 42.0633 78.1244 41.8978L78.2162 41.8059C78.8769 41.2357 79.5193 40.6287 80.1067 39.985C82.6212 37.1894 84.4566 33.842 85.4293 30.2003L85.466 30.0347C85.5027 29.906 85.5394 29.7772 85.5578 29.6485C85.5578 29.5381 85.5945 29.4462 85.6312 29.3358L85.6863 29.0783C85.723 28.9496 85.7413 28.8024 85.7781 28.6737V28.5817" fill="var(--fill-0, #2DA9E1)"/>
</g>
<defs>
<linearGradient id="paint0_linear_0_215" x1="29.3468" y1="24.6531" x2="-3.12396" y2="61.297" gradientUnits="userSpaceOnUse">
<stop stop-color="#233163"/>
<stop offset="0.4" stop-color="#195491"/>
<stop offset="0.7" stop-color="#1072B9"/>
<stop offset="1" stop-color="#1072B9"/>
</linearGradient>
<linearGradient id="paint1_linear_0_215" x1="79.1302" y1="40.4779" x2="117.206" y2="11.9817" gradientUnits="userSpaceOnUse">
<stop stop-color="#233163"/>
<stop offset="0.2" stop-color="#233163"/>
<stop offset="0.3" stop-color="#1E4178"/>
<stop offset="0.6" stop-color="#175C9C"/>
<stop offset="0.8" stop-color="#126CB1"/>
<stop offset="1" stop-color="#1072B9"/>
</linearGradient>
<linearGradient id="paint2_linear_0_215" x1="25.0465" y1="62.0559" x2="52.0322" y2="20.8534" gradientUnits="userSpaceOnUse">
<stop stop-color="#233163"/>
<stop offset="0.2" stop-color="#233163"/>
<stop offset="0.3" stop-color="#1E4178"/>
<stop offset="0.6" stop-color="#175C9C"/>
<stop offset="0.8" stop-color="#126CB1"/>
<stop offset="1" stop-color="#1072B9"/>
</linearGradient>
</defs>
</svg>
