<svg preserveAspectRatio="none" width="100%" height="100%" overflow="visible" style="display: block;" viewBox="0 0 107.122 46" fill="none" xmlns="http://www.w3.org/2000/svg">
<g id="OPO">
<path id="Vector" d="M26.3401 27.8726C26.1987 27.9823 26.0573 28.092 25.9159 28.2016L22.2709 31.8365C16.4736 37.6178 7.10978 36.5054 2.66356 30.3638C3.21344 31.3351 3.82617 32.2439 4.53317 33.1213C4.67457 33.2936 4.81597 33.4659 4.95737 33.6383C4.97308 33.6696 5.0045 33.701 5.03592 33.7166C5.52296 34.2807 6.04143 34.829 6.59131 35.3304C10.7704 39.1063 16.3322 40.9864 21.9567 40.532C22.8051 35.4401 25.0675 30.5988 26.7957 27.4496C26.6543 27.5906 26.4972 27.7316 26.3401 27.8726Z" fill="url(#paint0_linear_0_185)"/>
<path id="O" d="M40.4329 23.705C40.5114 23.2664 40.5743 22.8433 40.6214 22.4046C40.6528 22.1853 40.6686 21.9659 40.6843 21.7466V21.6369C40.7471 20.7439 40.7628 19.8665 40.7157 18.9734V18.6444C39.773 8.39782 31.1477 0.203678 20.6056 0.0626703C16.3007 -3.51074e-09 12.0902 1.28474 8.5709 3.76022C3.60622 7.30109 0.479721 12.8474 0.0555235 18.8951C-0.242986 22.8903 0.668254 26.8856 2.66356 30.3794C7.10978 36.5368 16.4736 37.6335 22.2709 31.8522L25.9159 28.2173C25.7431 28.3426 25.5545 28.4837 25.366 28.5933C20.9198 31.4448 14.981 30.1601 12.1216 25.7262C9.5607 21.7466 10.2991 16.498 13.8498 13.3801C13.8969 13.3331 13.9441 13.3018 13.9912 13.2548C16.6621 11.0143 20.3228 10.4033 23.5749 11.641H23.5907L23.6692 11.6723C25.256 12.2207 26.67 13.1921 27.7541 14.4768C30.3307 17.6574 30.5664 22.1383 28.3197 25.5695C28.0212 26.0552 27.6755 26.5095 27.2827 26.9482C27.1413 27.1206 26.9842 27.2773 26.8114 27.4339H26.7957V27.4653C25.0361 30.6144 22.7737 35.4557 21.941 40.5477C31.2262 39.8113 38.8461 32.8862 40.4172 23.7364" fill="var(--fill-0, #2DA9E1)"/>
<path id="Vector_2" d="M85.3979 0.0313351H85.0679C74.7929 0.955722 66.576 9.57289 66.4346 20.0858C66.3718 24.3787 67.6601 28.5777 70.1424 32.0872C73.6774 37.0225 79.2391 40.1403 85.3193 40.579C89.3256 40.8767 93.3319 39.968 96.8355 37.9782C103.01 33.5443 104.11 24.2064 98.3123 18.4251L94.6674 14.7902C94.7931 14.9625 94.9345 15.1505 95.0444 15.3386C97.8881 19.7881 96.5684 25.6948 92.0908 28.5307C88.1159 31.0375 82.9155 30.3168 79.789 26.8072C79.7419 26.7602 79.7105 26.7132 79.6633 26.6662C77.4167 24.0027 76.8039 20.3522 78.0451 17.109C78.0451 17.062 78.0451 17.0463 78.0765 17.015C78.6264 15.4326 79.6005 14.0225 80.8888 12.9414C84.628 10.0586 89.8912 10.2623 93.3948 13.4114C93.5676 13.5525 93.7247 13.7091 93.8818 13.8815V13.8971C97.0397 15.6519 101.894 17.908 107.001 18.7541C106.262 9.47888 99.3178 1.89578 90.1269 0.313351C89.687 0.235014 89.2628 0.172343 88.8229 0.125341C88.6029 0.0940054 88.383 0.0783379 88.163 0.0626703H88.053C87.5346 0.0156676 87.0004 0 86.4819 0C85.9635 0 85.7435 0 85.3822 0.0313351" fill="url(#paint1_linear_0_185)"/>
<path id="O-2" d="M94.3374 14.3672C94.4631 14.5082 94.5574 14.6492 94.6674 14.7902L98.3123 18.4251C104.11 24.2064 103.01 33.5443 96.8355 37.9782C97.8096 37.4298 98.7208 36.8031 99.6006 36.1138C99.7735 35.9728 99.9463 35.8317 100.119 35.6907L100.198 35.6124C105.099 31.4292 107.645 25.1308 107.032 18.7384C101.942 17.908 97.0712 15.6519 93.9132 13.9128C94.0546 14.0695 94.196 14.2105 94.3374 14.3672Z" fill="var(--fill-0, #2DA9E1)"/>
<path id="Vector_3" d="M40.6371 4.74727C36.2066 8.42916 33.5357 13.7875 33.3001 19.5375C33.3001 19.6941 33.2844 19.8508 33.2844 20.0075V45.9687C33.5357 45.9687 33.7871 46 34.0385 46C38.6418 45.6867 42.5696 42.6001 43.9522 38.2132C44.0307 37.9312 44.1093 37.6649 44.1721 37.3828C44.235 36.9128 44.2821 36.4271 44.2821 35.9571V21.1826C44.2507 20.7282 44.2507 20.2738 44.2821 19.8195C44.2821 18.5661 44.6277 17.344 45.2248 16.2629C45.8061 14.9939 46.6545 13.8658 47.7228 12.9728C49.6396 11.4217 52.1062 10.6853 54.5571 10.9203C54.18 10.7793 53.5673 10.5756 53.5202 10.5443C50.0952 9.58856 44.9577 7.75545 40.6686 4.71594C40.6686 4.71594 40.6528 4.71594 40.6371 4.74727Z" fill="url(#paint2_linear_0_185)"/>
<path id="P" d="M73.5675 24.3004C73.6146 24.0811 73.646 23.8774 73.6774 23.6737V23.564C73.7246 23.3604 73.756 23.1723 73.7874 22.9687V22.9217C73.8188 22.7023 73.8345 22.483 73.866 22.2636V22.1696C73.866 21.9816 73.8974 21.8093 73.8974 21.6369V21.4802C73.8974 21.2922 73.9288 21.0886 73.9288 20.9005V19.3808C73.9288 19.1928 73.9288 18.9891 73.8974 18.8011V18.7698C73.5517 14.4455 71.8235 10.3406 68.9798 7.05041C68.7913 6.83106 68.6028 6.62738 68.4142 6.42371C68.3514 6.34537 68.2728 6.2827 68.21 6.20436C68.0843 6.07902 67.9743 5.95368 67.8486 5.84401C67.7544 5.75 67.6601 5.67166 67.5658 5.57766L67.2673 5.29564C67.1574 5.20163 67.0474 5.09196 66.9217 4.99796L66.7174 4.82561C66.0262 4.24591 65.2877 3.69755 64.5179 3.21185C62.2398 1.77044 59.6946 0.799046 57.0394 0.344687C56.5995 0.266349 56.1753 0.203678 55.7354 0.156676C55.5155 0.125341 55.2955 0.109673 55.0756 0.0940054H54.9656C54.2272 0.0313352 53.5045 0.0156676 52.766 0.0313351C47.9742 -0.0156676 35.6724 0.0313351 35.6724 0.0313351C36.9922 1.91144 38.6104 3.57221 40.4643 4.93529C44.6592 7.99046 49.7652 9.8549 53.2531 10.8733C53.7087 10.842 54.18 10.8733 54.6357 10.9046C54.8242 10.9203 54.997 10.936 55.1698 10.9673H55.2013C55.3741 10.9986 55.5469 11.03 55.7197 11.0613H55.7511C55.924 11.0926 56.0968 11.1396 56.2696 11.1866H56.3325C56.4896 11.2493 56.6624 11.2963 56.8195 11.359H56.8509C57.008 11.4217 57.1809 11.4843 57.338 11.547L57.4165 11.5783C57.5736 11.641 57.715 11.7193 57.8721 11.782H57.9036C58.0607 11.876 58.2178 11.9544 58.3592 12.0327L58.4534 12.0954C58.6106 12.1894 58.752 12.2677 58.8934 12.3617C59.3804 12.6594 59.8517 13.0041 60.2759 13.3958C60.4487 13.5368 60.6059 13.6935 60.763 13.8658V13.8815C60.9044 14.0538 61.0458 14.1948 61.1872 14.3515C61.3286 14.5082 61.4071 14.6335 61.5171 14.7745C61.6428 14.9469 61.7842 15.1349 61.8942 15.3229C64.7536 19.7725 63.4496 25.6792 59.0033 28.5307C55.0127 31.0845 49.7652 30.3481 46.6387 26.8072C46.5916 26.7602 46.5602 26.7132 46.5131 26.6662C46.4031 26.5252 46.2931 26.3842 46.1831 26.2589L46.1046 26.1648C45.9003 25.8828 45.7118 25.6008 45.539 25.3031C45.5233 25.2718 45.4918 25.2405 45.4761 25.1935C45.3033 24.8958 45.1619 24.5981 45.0205 24.2847L44.9734 24.1751C44.8477 23.8617 44.7377 23.5484 44.6434 23.235C44.6434 23.2037 44.6277 23.1567 44.612 23.1097C44.5649 22.953 44.5335 22.7963 44.4863 22.6396C44.3764 22.1539 44.3135 21.6683 44.2664 21.1669V35.9414C44.2664 36.4271 44.235 36.8971 44.1721 37.3672C44.1093 37.6492 44.0307 37.9312 43.9364 38.1975L44.2192 38.3386L44.3764 38.4169H44.4078L44.502 38.4796L44.612 38.5266L44.7377 38.5892L45.0519 38.7459L45.2876 38.8556C45.4447 38.9339 45.6018 38.9966 45.7746 39.0593L45.9946 39.1533C46.136 39.2003 46.2617 39.2629 46.4031 39.3099L46.6387 39.4039L47.0001 39.5293L47.2358 39.6076L47.6443 39.733L47.8171 39.78C48.0056 39.8426 48.2098 39.8896 48.3984 39.9366L48.6183 39.9836C48.7597 40.015 48.8854 40.0463 49.0268 40.0777L49.2625 40.1247C49.4039 40.156 49.5453 40.1873 49.7024 40.2187L49.8438 40.25H49.8909C50.1266 40.297 50.3623 40.3283 50.6136 40.3753H50.7236C50.9593 40.4223 51.2107 40.4537 51.462 40.485C51.682 40.5163 51.9019 40.532 52.1219 40.5477C52.766 40.5947 53.4102 40.6104 54.0544 40.5947H54.3372C54.5414 40.5947 54.7299 40.5947 54.9342 40.5633H55.1227C55.3427 40.532 55.5626 40.5163 55.7826 40.485H55.9083C56.1125 40.4537 56.3325 40.438 56.5367 40.4067H56.6781C56.7881 40.3753 56.9138 40.344 57.0237 40.3283C57.7307 40.203 58.4377 40.0463 59.129 39.8426L59.2547 39.8113C59.4589 39.7486 59.6632 39.686 59.8517 39.6233L60.0717 39.545L60.3859 39.4353C60.543 39.3883 60.7001 39.3256 60.8572 39.2629L61.0929 39.1689C61.2343 39.1063 61.3757 39.0593 61.5171 38.9966L61.7056 38.9183C61.8784 38.8399 62.0513 38.7616 62.2084 38.6832L62.3498 38.6206C62.5383 38.5266 62.7268 38.4326 62.8997 38.3386L63.0096 38.2759C63.1982 38.1662 63.4024 38.0722 63.591 37.9625C63.7795 37.8529 64.0151 37.7119 64.2194 37.5865L64.4393 37.4612C64.5807 37.3828 64.7064 37.2888 64.8478 37.1948L65.0992 37.0381C65.2877 36.9128 65.4606 36.7875 65.6334 36.6621C65.8848 36.4898 66.1204 36.3018 66.3561 36.1138C66.5289 35.9728 66.7017 35.8317 66.8746 35.6907L66.9531 35.6124C67.5187 35.1267 68.0686 34.6097 68.5714 34.0613C70.7238 31.6798 72.2949 28.8283 73.1276 25.7262L73.159 25.5851C73.1904 25.4755 73.2218 25.3658 73.2375 25.2561C73.2375 25.1621 73.2689 25.0838 73.3004 24.9898L73.3475 24.7704C73.3789 24.6608 73.3946 24.5354 73.4261 24.4257V24.3474" fill="var(--fill-0, #2DA9E1)"/>
</g>
<defs>
<linearGradient id="paint0_linear_0_185" x1="25.1209" y1="21.0008" x2="-2.52289" y2="52.3493" gradientUnits="userSpaceOnUse">
<stop stop-color="#233163"/>
<stop offset="0.4" stop-color="#195491"/>
<stop offset="0.7" stop-color="#1072B9"/>
<stop offset="1" stop-color="#1072B9"/>
</linearGradient>
<linearGradient id="paint1_linear_0_185" x1="67.7355" y1="34.4812" x2="100.214" y2="10.0553" gradientUnits="userSpaceOnUse">
<stop stop-color="#233163"/>
<stop offset="0.2" stop-color="#233163"/>
<stop offset="0.3" stop-color="#1E4178"/>
<stop offset="0.6" stop-color="#175C9C"/>
<stop offset="0.8" stop-color="#126CB1"/>
<stop offset="1" stop-color="#1072B9"/>
</linearGradient>
<linearGradient id="paint2_linear_0_185" x1="21.4398" y1="52.8624" x2="44.3829" y2="17.6618" gradientUnits="userSpaceOnUse">
<stop stop-color="#233163"/>
<stop offset="0.2" stop-color="#233163"/>
<stop offset="0.3" stop-color="#1E4178"/>
<stop offset="0.6" stop-color="#175C9C"/>
<stop offset="0.8" stop-color="#126CB1"/>
<stop offset="1" stop-color="#1072B9"/>
</linearGradient>
</defs>
</svg>
