<svg preserveAspectRatio="none" width="100%" height="100%" overflow="visible" style="display: block;" viewBox="0 0 20.8496 20.8496" fill="none" xmlns="http://www.w3.org/2000/svg">
<g id="Icon" clip-path="url(#clip0_0_169)">
<path id="Vector" d="M19.3063 0H1.53929C0.688201 0 0 0.671912 0 1.50264V19.3429C0 20.1737 0.688201 20.8496 1.53929 20.8496H19.3063C20.1574 20.8496 20.8496 20.1737 20.8496 19.347V1.50264C20.8496 0.671912 20.1574 0 19.3063 0ZM6.18566 17.767H3.0908V7.81454H6.18566V17.767ZM4.63823 6.4585C3.64462 6.4585 2.84239 5.65628 2.84239 4.66674C2.84239 3.67719 3.64462 2.87497 4.63823 2.87497C5.62777 2.87497 6.43 3.67719 6.43 4.66674C6.43 5.65221 5.62777 6.4585 4.63823 6.4585ZM17.767 17.767H14.6762V12.9292C14.6762 11.7768 14.6558 10.2904 13.0677 10.2904C11.4592 10.2904 11.2148 11.5487 11.2148 12.8478V17.767H8.1281V7.81454H11.0927V9.17466H11.1334C11.5447 8.3928 12.5546 7.56614 14.0572 7.56614C17.1887 7.56614 17.767 9.62667 17.767 12.3062V17.767V17.767Z" fill="var(--fill-0, white)"/>
</g>
<defs>
<clipPath id="clip0_0_169">
<rect width="20.8496" height="20.8496" fill="white"/>
</clipPath>
</defs>
</svg>
