<svg viewBox="0 0 20.8496 20.8496" fill="none" xmlns="http://www.w3.org/2000/svg">
<path d="M10.4248 0C4.66751 0 0 4.66751 0 10.4248C0 16.1821 4.66751 20.8496 10.4248 20.8496C16.1821 20.8496 20.8496 16.1821 20.8496 10.4248C20.8496 4.66751 16.1821 0 10.4248 0ZM15.2795 7.09324L13.5744 15.1305C13.4487 15.6963 13.1099 15.8339 12.6357 15.5677L10.0523 13.6636L8.80661 14.8659C8.6674 15.0051 8.55118 15.1213 8.28479 15.1213L8.46804 12.4776L13.2311 8.16856C13.4396 7.98338 13.1858 7.87954 12.9092 8.06472L7.02602 11.7797L4.47649 10.9832C3.92264 10.8087 3.91272 10.4324 4.59114 10.1663L14.5638 6.30752C15.0243 6.14213 15.4275 6.42258 15.2795 7.09324Z" fill="white"/>
</svg>
