<svg preserveAspectRatio="none" width="100%" height="100%" overflow="visible" style="display: block;" viewBox="0 0 75 57" fill="none" xmlns="http://www.w3.org/2000/svg">
<g id="Tiki-Talk Logo 1" clip-path="url(#clip0_0_171)">
<path id="Vector" d="M71.5598 0L13.0958 8.99147L12.6923 13.2241L67.3478 6.54871L62.6993 35.4615L5.6175 42.8154L10.2188 23.5726L6.54 23.636L0 51.35L10.5203 49.3875L8.769 57L17.5463 48.0771L65.1458 39.1995L71.5598 0Z" fill="var(--fill-0, #54E152)"/>
<g id="Tiki">
<path id="Vector_2" d="M25.044 7.15412L21.975 22.4568L17.0745 22.4998L20.118 7.91107L25.044 7.15412Z" fill="var(--fill-0, white)"/>
<path id="Vector_3" d="M54.9885 2.54831L44.0783 4.22582L37.0958 10.243L33.363 10.6991C33.7478 8.61978 34.281 5.73295 34.281 5.73295L28.1888 6.67009L24.8363 22.4319L31.2045 22.3761C31.2045 22.3761 31.8533 18.865 32.46 15.5839H35.046L35.0325 15.6201L41.2568 22.2887L52.2038 22.1929L42.6165 13.0665L54.9885 2.54831Z" fill="var(--fill-0, white)"/>
<path id="Vector_4" d="M58.797 22.1356L62.2823 1.42645L56.736 2.27991L53.241 22.1839L58.797 22.1356Z" fill="var(--fill-0, white)"/>
<path id="Vector_5" d="M6.78675 22.5895L10.4752 22.5571V22.4998L12.6922 13.2241L17.7847 12.6021L18.6772 8.13273L5.26425 10.1955L4.36275 14.2419L8.8875 13.6893L6.78675 22.5895Z" fill="var(--fill-0, white)"/>
</g>
<g id="Talk">
<path id="Vector_6" d="M26.5132 46.4049L29.736 30.5285L36.483 30.1379L37.7287 23.3344L17.0745 23.4987L15.2212 31.6865L23.5012 31.0374L20.0115 47.6172L26.5132 46.4049Z" fill="var(--fill-0, white)"/>
<path id="Vector_7" d="M60.9825 39.9761L61.6027 35.6032L56.3783 36.2765L58.6537 23.1685L53.022 23.213L49.8097 42.06L60.9825 39.9761Z" fill="var(--fill-0, white)"/>
<path id="Vector_8" d="M71.6355 23.0652L68.154 28.4657H66.9022L67.7752 23.1308L64.6755 23.17L62.0047 39.7853L65.1457 39.1995L66.0615 33.603L67.3477 33.5405L69.1657 38.481L72.6502 37.8334L70.3747 30.9431L75 23.0388L71.6355 23.0818" fill="var(--fill-0, white)"/>
<path id="Vector_9" d="M46.8315 23.3344V23.262L41.2807 23.3057V23.3336L29.6182 45.8244L36.0472 44.6256L38.7908 38.5413L43.8645 37.8877L44.3347 43.0265L44.3408 43.0793L49.3245 42.1497L46.833 23.3336L46.8315 23.3344ZM40.2427 35.3205L43.0575 29.0779L43.5877 34.8696L40.2427 35.3205Z" fill="var(--fill-0, white)"/>
</g>
</g>
<defs>
<clipPath id="clip0_0_171">
<rect width="75" height="57" fill="white"/>
</clipPath>
</defs>
</svg>
