<svg preserveAspectRatio="none" width="100%" height="100%" overflow="visible" style="display: block;" viewBox="0 0 103.075 31.6189" fill="none" xmlns="http://www.w3.org/2000/svg">
<g id="Group">
<path id="Vector" d="M3.38168 27.668H5.99386V17.3483H9.41127V14.8586H0V17.3483H3.38168V27.668Z" fill="var(--fill-0, white)"/>
<path id="Vector_2" d="M9.41509 27.668H11.8664V23.3561C11.8664 21.8586 12.6357 20.9566 13.7986 20.9566C14.2102 20.9566 14.5323 21.0288 14.908 21.155V18.6473C14.6039 18.5571 14.3534 18.5391 14.0849 18.5391C13.083 18.5391 12.1705 19.2065 11.8664 20.0906V18.6473H9.41509V27.668Z" fill="var(--fill-0, white)"/>
<path id="Vector_3" d="M19.6128 27.8664C20.8473 27.8664 21.7777 27.235 22.1892 26.6576V27.668H24.6405V18.6473H22.1892V19.6576C21.7777 19.0803 20.8473 18.4489 19.6128 18.4489C17.2331 18.4489 15.4081 20.6138 15.4081 23.1575C15.4081 25.7014 17.2331 27.8664 19.6128 27.8664ZM20.1316 25.6112C18.7718 25.6112 17.8773 24.5829 17.8773 23.1575C17.8773 21.7324 18.7718 20.704 20.1316 20.704C21.4915 20.704 22.386 21.7324 22.386 23.1575C22.386 24.5829 21.4915 25.6112 20.1316 25.6112Z" fill="var(--fill-0, white)"/>
<path id="Vector_4" d="M30.4767 27.8664C31.7112 27.8664 32.6416 27.235 33.0532 26.6576V27.668H35.5043V14.137H33.0532V19.6576C32.6416 19.0803 31.7112 18.4489 30.4767 18.4489C28.097 18.4489 26.272 20.6138 26.272 23.1575C26.272 25.7014 28.097 27.8664 30.4767 27.8664ZM30.9956 25.6112C29.6358 25.6112 28.7411 24.5829 28.7411 23.1575C28.7411 21.7324 29.6358 20.704 30.9956 20.704C32.3554 20.704 33.25 21.7324 33.25 23.1575C33.25 24.5829 32.3554 25.6112 30.9956 25.6112Z" fill="var(--fill-0, white)"/>
<path id="Vector_5" d="M38.9251 17.1679C39.8018 17.1679 40.4996 16.4643 40.4996 15.5983C40.4996 14.7322 39.8018 14.0286 38.9251 14.0286C38.0842 14.0286 37.3685 14.7322 37.3685 15.5983C37.3685 16.4643 38.0842 17.1679 38.9251 17.1679ZM37.7085 27.668H40.1596V18.6473H37.7085V27.668Z" fill="var(--fill-0, white)"/>
<path id="Vector_6" d="M42.3346 27.668H44.7858V23.2658C44.7858 21.5338 45.6267 20.704 46.7718 20.704C47.7916 20.704 48.3464 21.4978 48.3464 22.7967V27.668H50.7976V22.3818C50.7976 20.0364 49.5094 18.4489 47.3444 18.4489C46.1815 18.4489 45.2689 18.9539 44.7858 19.6756V18.6473H42.3346V27.668Z" fill="var(--fill-0, white)"/>
<path id="Vector_7" d="M57.0353 25.3225C55.8008 25.3225 54.7631 24.3843 54.7631 23.0133C54.7631 21.624 55.8008 20.704 57.0353 20.704C58.27 20.704 59.3077 21.624 59.3077 23.0133C59.3077 24.3843 58.27 25.3225 57.0353 25.3225ZM56.7491 31.6189C59.4866 31.6189 61.562 30.2117 61.562 26.9642V18.6473H59.1109V19.6576C58.6278 18.9539 57.6616 18.4489 56.5165 18.4489C54.1726 18.4489 52.294 20.4694 52.294 23.0133C52.294 25.539 54.1726 27.5596 56.5165 27.5596C57.6616 27.5596 58.6278 27.0364 59.1109 26.3689V26.9824C59.1109 28.4256 58.1626 29.4539 56.7134 29.4539C55.7114 29.4539 54.7094 29.1112 53.9221 28.3354L52.5802 30.1757C53.6 31.1679 55.1925 31.6189 56.7491 31.6189Z" fill="var(--fill-0, white)"/>
<path id="Vector_8" d="M66.7447 27.668H69.0533L74.3129 14.8586H71.4506L67.9079 23.7529L64.3116 14.8586H61.5025L66.7447 27.668Z" fill="var(--fill-0, white)"/>
<path id="Vector_9" d="M76.5629 17.1679C77.4397 17.1679 78.1365 16.4643 78.1365 15.5983C78.1365 14.7322 77.4397 14.0286 76.5629 14.0286C75.7215 14.0286 75.0056 14.7322 75.0056 15.5983C75.0056 16.4643 75.7215 17.1679 76.5629 17.1679ZM75.3451 27.668H77.797V18.6473H75.3451V27.668Z" fill="var(--fill-0, white)"/>
<path id="Vector_10" d="M84.1406 27.8664C86.0197 27.8664 87.4501 27.0726 88.2915 25.8457L86.467 24.4747C86.0551 25.1061 85.286 25.6112 84.1583 25.6112C82.9774 25.6112 81.922 24.9437 81.7788 23.7349H88.4701C88.5247 23.3561 88.5069 23.1035 88.5069 22.8869C88.5069 19.9462 86.4492 18.4489 84.1051 18.4489C81.3847 18.4489 79.3992 20.4874 79.3992 23.1575C79.3992 26.0081 81.4747 27.8664 84.1406 27.8664ZM81.8688 22.057C82.1006 20.9566 83.1206 20.4874 84.0329 20.4874C84.9451 20.4874 85.841 20.9746 86.0551 22.057H81.8688Z" fill="var(--fill-0, white)"/>
<path id="Vector_11" d="M97.6897 27.668H100.124L103.075 18.6473H100.446L98.7629 24.4205L96.9383 18.6473H95.0592L93.2524 24.4205L91.5533 18.6473H88.9406L91.9106 27.668H94.3433L96.0083 22.5442L97.6897 27.668Z" fill="var(--fill-0, white)"/>
<path id="Vector_12" d="M2.61873 8.49042H3.98318V1.45826H6.39737V0.141117H0.216273V1.45826H2.61873V8.49042ZM7.15991 8.49042H8.52437V4.82137H9.1425L12.1747 8.49042H13.8541L10.7752 4.73914C11.9648 4.45686 12.6529 3.69249 12.6529 2.51659C12.6529 1.14063 11.6849 0.141117 10.1455 0.141117H7.15991V8.49042ZM8.52437 3.62196V1.41109H9.98209C10.7869 1.41109 11.2883 1.79926 11.2883 2.51659C11.2883 3.23393 10.7869 3.62196 9.98209 3.62196H8.52437ZM13.2421 8.49042H14.6534L15.5864 6.30307H19.2949L20.2396 8.49042H21.6625L18.0471 0.141117H16.8575L13.2421 8.49042ZM16.1111 5.08014L17.4406 1.98736L18.7702 5.08014H16.1111ZM22.2626 8.49042H24.8051C27.2658 8.49042 29.1435 6.67941 29.1435 4.31578C29.1435 1.95216 27.2658 0.141117 24.8051 0.141117H22.2626V8.49042ZM23.6272 7.20864V1.42292H24.8051C26.5777 1.42292 27.7556 2.68118 27.7556 4.31578C27.7556 5.95038 26.5777 7.20864 24.8051 7.20864H23.6272ZM30.1785 8.49042H35.1584V7.17331H31.543V4.91556H34.4585V3.59844H31.543V1.45826H35.1584V0.141117H30.1785V8.49042ZM46.5743 4.31578C46.5743 1.90499 44.6617 0 42.2943 0C39.9151 0 38.0142 1.90499 38.0142 4.31578C38.0142 6.72643 39.9151 8.63149 42.2943 8.63149C44.6617 8.63149 46.5743 6.72643 46.5743 4.31578ZM39.3904 4.31578C39.3904 2.65767 40.6499 1.32887 42.2943 1.32887C43.927 1.32887 45.1865 2.65767 45.1865 4.31578C45.1865 5.97389 43.927 7.30269 42.2943 7.30269C40.6499 7.30269 39.3904 5.97389 39.3904 4.31578ZM54.8242 8.49042V0.141117H53.448V6.12679L48.7947 0.141117H47.6051V8.49042H48.9697V2.48126L53.6345 8.49042H54.8242Z" fill="var(--fill-0, white)"/>
</g>
</svg>
